<?xml version="1.0" standalone="no"?>
<!DOCTYPE svg PUBLIC "-//W3C//DTD SVG 20010904//EN"
 "http://www.w3.org/TR/2001/REC-SVG-20010904/DTD/svg10.dtd">
<svg version="1.0" xmlns="http://www.w3.org/2000/svg"
 width="580.000000pt" height="400.000000pt" viewBox="0 0 580.000000 400.000000"
 preserveAspectRatio="xMidYMid meet">

<g transform="translate(0.000000,400.000000) scale(0.100000,-0.100000)"
fill="#000000" stroke="none">
<path d="M2650 3425 c-184 -34 -398 -119 -541 -216 -318 -213 -526 -523 -611
-907 -31 -140 -31 -424 0 -564 131 -592 574 -1021 1161 -1123 111 -20 353 -19
467 0 319 55 626 228 831 468 202 235 317 505 345 809 48 518 -194 1024 -629
1316 -149 100 -362 185 -542 216 -116 20 -374 20 -481 1z m452 -230 c405 -70
754 -365 903 -760 27 -71 64 -222 65 -261 0 -19 -3 -18 -35 11 -46 44 -92 58
-175 53 -81 -4 -139 -37 -169 -95 l-19 -38 -7 40 c-52 324 -242 561 -530 662
-74 26 -91 28 -235 28 -144 0 -161 -2 -235 -28 -248 -87 -433 -286 -507 -544
-32 -112 -32 -314 0 -426 74 -258 259 -457 507 -544 74 -26 91 -28 235 -28
144 0 161 2 235 28 294 103 499 365 531 680 l7 68 18 -40 c28 -63 86 -95 178
-99 65 -3 83 0 121 20 25 14 56 40 69 59 l24 34 -7 -83 c-39 -493 -369 -907
-841 -1055 -124 -39 -227 -50 -399 -44 -157 6 -236 21 -367 70 -375 142 -658
475 -745 877 -26 118 -26 362 0 480 88 410 378 745 764 884 66 23 161 48 232
59 65 11 304 6 382 -8z m-61 -601 c127 -38 225 -110 299 -220 70 -105 95 -191
95 -324 0 -127 -24 -215 -85 -309 -106 -164 -262 -251 -450 -251 -184 0 -336
82 -440 236 -70 105 -95 191 -95 324 0 133 25 219 95 324 73 108 164 176 290
217 72 23 217 25 291 3z"/>
<path d="M2808 3186 c-59 -21 -86 -43 -108 -86 -60 -117 29 -244 170 -244 105
0 190 75 190 169 0 115 -139 203 -252 161z"/>
<path d="M1815 2265 c-64 -39 -90 -86 -90 -165 0 -57 4 -73 28 -107 78 -112
238 -112 314 1 23 34 28 52 28 107 0 57 -4 72 -29 108 -57 82 -169 107 -251
56z"/>
<path d="M2830 1214 c-71 -31 -130 -109 -130 -174 0 -72 52 -147 125 -181 50
-23 151 -25 203 -4 56 24 108 80 123 132 24 88 -24 181 -116 224 -49 23 -155
25 -205 3z"/>
</g>
</svg>
